<svg width="1504" height="1070" viewBox="0 0 1504 1070" fill="none" xmlns="http://www.w3.org/2000/svg">
<path d="M887.188 293.598C887.188 293.598 716.633 300.313 651.723 270.768C586.813 241.223 504.238 187.952 504.238 187.952" stroke="black" stroke-width="50" stroke-linecap="round"/>
<path d="M887.191 293.598L768.115 25.0063" stroke="black" stroke-width="50" stroke-linecap="round"/>
<path d="M887.191 293.598L636.505 119.909" stroke="black" stroke-width="50" stroke-linecap="round"/>
<path d="M886.951 309.469C886.951 309.469 716.395 302.755 651.485 332.3C586.576 361.845 504 415.116 504 415.116" stroke="black" stroke-width="50" stroke-linecap="round"/>
<path d="M886.951 309.47L767.875 578.061" stroke="black" stroke-width="50" stroke-linecap="round"/>
<path d="M886.951 309.47L636.265 483.159" stroke="black" stroke-width="50" stroke-linecap="round"/>
<path d="M867.495 231.427C906.281 231.427 937.723 262.87 937.723 301.656C937.723 340.442 906.281 371.884 867.495 371.885C828.708 371.885 797.265 340.442 797.265 301.656C797.265 262.87 828.708 231.427 867.495 231.427Z" fill="#FF800D" stroke="#C75E00"/>
<circle cx="541" cy="878.006" r="141" stroke="black" stroke-width="50"/>
<circle cx="939" cy="877.006" r="142" stroke="black" stroke-width="50"/>
<path d="M1196 736.006C1196 736.006 1196 819.365 1196 892.276C1196 986.955 1239.66 1045.01 1326 1045.01C1412.34 1045.01 1456 986.955 1456 908.344C1456 829.129 1456 736.006 1456 736.006" stroke="black" stroke-width="50"/>
<circle cx="1459.5" cy="1000.51" r="44.5" fill="#F5F5F5"/>
<circle cx="1460" cy="1001.01" r="33.5" fill="#FF800D" stroke="#C75E00"/>
<line x1="1081" y1="578.006" x2="1081" y2="1044.01" stroke="black" stroke-width="50"/>
<path d="M25 1044.01C25 1044.01 25.0003 960.647 25.0001 887.737C24.9999 793.058 68.6644 735.006 155 735.006C241.336 735.006 285 793.058 285 871.668C285 950.883 285 1044.01 285 1044.01" stroke="black" stroke-width="50"/>
</svg>
