<svg width="500" height="600" viewBox="470 0 500 600" fill="none" xmlns="http://www.w3.org/2000/svg">
<path d="M887.188 293.598C887.188 293.598 716.633 300.313 651.723 270.768C586.813 241.223 504.238 187.952 504.238 187.952" stroke="black" stroke-width="50" stroke-linecap="round"/>
<path d="M887.191 293.598L768.115 25.0063" stroke="black" stroke-width="50" stroke-linecap="round"/>
<path d="M887.191 293.598L636.505 119.909" stroke="black" stroke-width="50" stroke-linecap="round"/>
<path d="M886.951 309.469C886.951 309.469 716.395 302.755 651.485 332.3C586.576 361.845 504 415.116 504 415.116" stroke="black" stroke-width="50" stroke-linecap="round"/>
<path d="M886.951 309.47L767.875 578.061" stroke="black" stroke-width="50" stroke-linecap="round"/>
<path d="M886.951 309.47L636.265 483.159" stroke="black" stroke-width="50" stroke-linecap="round"/>
<path d="M867.495 231.427C906.281 231.427 937.723 262.87 937.723 301.656C937.723 340.442 906.281 371.884 867.495 371.885C828.708 371.885 797.265 340.442 797.265 301.656C797.265 262.87 828.708 231.427 867.495 231.427Z" fill="#FF800D" stroke="#C75E00"/>
</svg>
