<svg width="1504" height="520" viewBox="0 540 1504 520" fill="none" xmlns="http://www.w3.org/2000/svg">
<circle cx="541" cy="878.006" r="141" stroke="black" stroke-width="50"/>
<circle cx="939" cy="877.006" r="142" stroke="black" stroke-width="50"/>
<path d="M1196 736.006C1196 736.006 1196 819.365 1196 892.276C1196 986.955 1239.66 1045.01 1326 1045.01C1412.34 1045.01 1456 986.955 1456 908.344C1456 829.129 1456 736.006 1456 736.006" stroke="black" stroke-width="50"/>
<circle cx="1459.5" cy="1000.51" r="44.5" fill="#F5F5F5"/>
<circle cx="1460" cy="1001.01" r="33.5" fill="#FF800D" stroke="#C75E00"/>
<line x1="1081" y1="578.006" x2="1081" y2="1044.01" stroke="black" stroke-width="50"/>
<path d="M25 1044.01C25 1044.01 25.0003 960.647 25.0001 887.737C24.9999 793.058 68.6644 735.006 155 735.006C241.336 735.006 285 793.058 285 871.668C285 950.883 285 1044.01 285 1044.01" stroke="black" stroke-width="50"/>
</svg>
