<svg xmlns="http://www.w3.org/2000/svg" viewBox="0 0 760 360" role="img" aria-labelledby="nodyLogoTitle nodyLogoDesc">
  <title id="nodyLogoTitle">nody logo</title>
  <desc id="nodyLogoDesc">Black rounded wordmark nody with an orange dot and a starburst symbol above it.</desc>
  <defs>
    <filter id="orangeGlow" x="-40%" y="-40%" width="180%" height="180%">
      <feDropShadow dx="0" dy="3" stdDeviation="3" flood-color="#9a2d00" flood-opacity="0.35"/>
    </filter>
  </defs>

  <g transform="translate(415 95)" stroke="#050505" stroke-width="18" stroke-linecap="round" fill="none">
    <path d="M0 0 L-76 -46"/>
    <path d="M0 0 L-36 -98"/>
    <path d="M0 0 C-42 -6 -73 -23 -104 -47"/>
    <path d="M0 0 C-36 17 -73 38 -110 69"/>
    <path d="M0 0 L-58 132"/>
  </g>
  <circle cx="415" cy="95" r="25" fill="#f47a12" filter="url(#orangeGlow)"/>

  <g transform="translate(122 230)" stroke="#050505" stroke-width="18" stroke-linecap="round" stroke-linejoin="round" fill="none">
    <path d="M0 95 V20 C0 4 18 -9 34 -9 C51 -9 68 4 68 20 V95"/>
    <circle cx="160" cy="55" r="47"/>
    <path d="M305 95 V-25"/>
    <circle cx="258" cy="55" r="47"/>
    <path d="M395 8 V55 C395 76 410 95 432 95 C454 95 469 76 469 55 V8"/>
  </g>
  <circle cx="614" cy="319" r="13" fill="#f47a12" filter="url(#orangeGlow)"/>
</svg>
